<?xml version="1.0" standalone="yes"?>
<!DOCTYPE svg PUBLIC "-//W3C//DTD SVG 1.1//EN"
 "http://www.w3.org/Graphics/SVG/1.1/DTD/svg11.dtd">
<svg xmlns="http://www.w3.org/2000/svg" version="1.1"
  width="100%" height="100%" viewBox="0 0 1024 768"
  style="fill: none; stroke-width: 3; font-family: Helvetica;
 font: Helvetica;
">

<!-- Creator: NGspice -->

<rect x="0" y="0" width="1024" height="768" fill="white" stroke="none"/>
<text stroke="none" fill="black" font-size="16" x="358" y="752">
time
</text>
<text stroke="none" fill="black" font-size="16" x="10" y="16">
tran1: initial_condition_U24EC025
</text>
<path stroke="black" stroke-width="3" d="M50 704l0 -640"/>
<text stroke="none" fill="black" font-size="16" x="35" y="728">
0.0
</text>
<path stroke="black" stroke-width="3" stroke-dasharray="1,2" d="M142 704l0 -640"/>
<text stroke="none" fill="black" font-size="16" x="127" y="728">
5.0
</text>
<path stroke="black" stroke-width="3" stroke-dasharray="1,2" d="M234 704l0 -640"/>
<text stroke="none" fill="black" font-size="16" x="214" y="728">
10.0
</text>
<path stroke="black" stroke-width="3" stroke-dasharray="1,2" d="M326 704l0 -640"/>
<text stroke="none" fill="black" font-size="16" x="306" y="728">
15.0
</text>
<path stroke="black" stroke-width="3" stroke-dasharray="1,2" d="M418 704l0 -640"/>
<text stroke="none" fill="black" font-size="16" x="398" y="728">
20.0
</text>
<path stroke="black" stroke-width="3" stroke-dasharray="1,2" d="M510 704l0 -640"/>
<text stroke="none" fill="black" font-size="16" x="490" y="728">
25.0
</text>
<path stroke="black" stroke-width="3" stroke-dasharray="1,2" d="M602 704l0 -640"/>
<text stroke="none" fill="black" font-size="16" x="582" y="728">
30.0
</text>
<path stroke="black" stroke-width="3" stroke-dasharray="1,2" d="M694 704l0 -640"/>
<text stroke="none" fill="black" font-size="16" x="674" y="728">
35.0
</text>
<path stroke="black" stroke-width="3" stroke-dasharray="1,2" d="M786 704l0 -640"/>
<text stroke="none" fill="black" font-size="16" x="766" y="728">
40.0
</text>
<path stroke="black" stroke-width="3" stroke-dasharray="1,2" d="M878 704l0 -640"/>
<text stroke="none" fill="black" font-size="16" x="858" y="728">
45.0
</text>
<path stroke="black" stroke-width="3" stroke-dasharray="1,2" d="M970 704l0 -640"/>
<text stroke="none" fill="black" font-size="16" x="950" y="728">
50.0
</text>
<text stroke="none" fill="black" font-size="16" x="614" y="752">
ns
</text>
<path stroke="black" stroke-width="3" stroke-dasharray="1,2" d="M50 704l920 0"/>
<text stroke="none" fill="black" font-size="16" x="8" y="712">
-2.0
</text>
<path stroke="black" stroke-width="3" stroke-dasharray="1,2" d="M50 640l920 0"/>
<text stroke="none" fill="black" font-size="16" x="8" y="648">
-1.5
</text>
<path stroke="black" stroke-width="3" stroke-dasharray="1,2" d="M50 576l920 0"/>
<text stroke="none" fill="black" font-size="16" x="8" y="584">
-1.0
</text>
<path stroke="black" stroke-width="3" stroke-dasharray="1,2" d="M50 512l920 0"/>
<text stroke="none" fill="black" font-size="16" x="8" y="520">
-0.5
</text>
<path stroke="black" stroke-width="3" d="M50 448l920 0"/>
<text stroke="none" fill="black" font-size="16" x="18" y="456">
0.0
</text>
<path stroke="black" stroke-width="3" stroke-dasharray="1,2" d="M50 384l920 0"/>
<text stroke="none" fill="black" font-size="16" x="18" y="392">
0.5
</text>
<path stroke="black" stroke-width="3" stroke-dasharray="1,2" d="M50 320l920 0"/>
<text stroke="none" fill="black" font-size="16" x="18" y="328">
1.0
</text>
<path stroke="black" stroke-width="3" stroke-dasharray="1,2" d="M50 256l920 0"/>
<text stroke="none" fill="black" font-size="16" x="18" y="264">
1.5
</text>
<path stroke="black" stroke-width="3" stroke-dasharray="1,2" d="M50 192l920 0"/>
<text stroke="none" fill="black" font-size="16" x="18" y="200">
2.0
</text>
<path stroke="black" stroke-width="3" stroke-dasharray="1,2" d="M50 128l920 0"/>
<text stroke="none" fill="black" font-size="16" x="18" y="136">
2.5
</text>
<path stroke="black" stroke-width="3" stroke-dasharray="1,2" d="M50 64l920 0"/>
<text stroke="none" fill="black" font-size="16" x="18" y="72">
3.0
</text>
<text stroke="none" fill="black" font-size="16" x="10" y="32">
     
</text>
<path stroke="red" d="M460 23l46 0"/>
<text stroke="none" fill="black" font-size="16" x="516" y="32">
v(in)
</text>
<path stroke="red" d="M50 320l1 0 2 0 3 0 6 0 6 0 2 0 2 0 5 0 9 0 18 0 19 0 18 0 19 0 18 0 18 0 19 0 18 0 19 0 18 0 18 0 19 0 18 0 19 0 18 0 18 0 19 0 18 0 19 0 18 0 18 0 19 0 18 0 19 0 18 0 18 0 19 0 18 0 19 0 18 0 18 0 19 0 18 0 19 0 18 0 18 0"/>
<path stroke="red" d="M748 320l19 0 18 0 19 0 18 0 18 0 19 0 18 0 19 0 18 0 18 0 19 0 18 0 1 0"/>
<path stroke="blue" d="M50 23l46 0"/>
<text stroke="none" fill="black" font-size="16" x="106" y="32">
v(out)
</text>
<path stroke="blue" d="M50 65l0 2 1 2 0 5 2 10 3 18 6 32 6 31 2 5 2 9 5 17 9 28 18 38 19 23 18 14 19 9 18 5 18 3 19 1 18 1 19 1 18 0 18 1 19 0 18 0 19 0 18 0 18 0 19 0 18 0 19 0 18 0 18 0 19 0 18 0 19 0 18 0 18 0 19 0 18 0 19 0 18 0 18 0 19 0"/>
<path stroke="blue" d="M675 320l18 0 19 0 18 0 18 0 19 0 18 0 19 0 18 0 18 0 19 0 18 0 19 0 18 0 18 0 19 0 18 0 1 0"/>
<path stroke="#FFA500" d="M460 39l46 0"/>
<text stroke="none" fill="black" font-size="16" x="516" y="48">
v(in,out)
</text>
<path stroke="#FFA500" d="M50 703l0 -2 1 -2 0 -5 2 -10 3 -18 6 -32 6 -31 2 -5 2 -9 5 -17 9 -28 18 -38 19 -23 18 -14 19 -9 18 -5 18 -3 19 -1 18 -1 19 -1 18 0 18 -1 19 0 18 0 19 0 18 0 18 0 19 0 18 0 19 0 18 0 18 0 19 0 18 0 19 0 18 0 18 0 19 0"/>
<path stroke="#FFA500" d="M583 448l18 0 19 0 18 0 18 0 19 0 18 0 19 0 18 0 18 0 19 0 18 0 19 0 18 0 18 0 19 0 18 0 19 0 18 0 18 0 19 0 18 0 1 0"/>
</svg>
