<?xml version="1.0" standalone="yes"?>
<!DOCTYPE svg PUBLIC "-//W3C//DTD SVG 1.1//EN"
 "http://www.w3.org/Graphics/SVG/1.1/DTD/svg11.dtd">
<svg xmlns="http://www.w3.org/2000/svg" version="1.1"
  width="100%" height="100%" viewBox="0 0 1024 768"
  style="fill: none; stroke-width: 3; font-family: Helvetica;
 font: Helvetica;
">

<!-- Creator: NGspice -->

<rect x="0" y="0" width="1024" height="768" fill="white" stroke="none"/>
<text stroke="none" fill="black" font-size="16" x="358" y="752">
time
</text>
<text stroke="none" fill="black" font-size="16" x="10" y="16">
tran1: piecewise_linear_voltage_source_u24ec025
</text>
<path stroke="black" stroke-width="3" d="M50 704l0 -639"/>
<text stroke="none" fill="black" font-size="16" x="35" y="728">
0.0
</text>
<path stroke="black" stroke-width="3" stroke-dasharray="1,2" d="M142 704l0 -639"/>
<text stroke="none" fill="black" font-size="16" x="127" y="728">
0.5
</text>
<path stroke="black" stroke-width="3" stroke-dasharray="1,2" d="M234 704l0 -639"/>
<text stroke="none" fill="black" font-size="16" x="219" y="728">
1.0
</text>
<path stroke="black" stroke-width="3" stroke-dasharray="1,2" d="M326 704l0 -639"/>
<text stroke="none" fill="black" font-size="16" x="311" y="728">
1.5
</text>
<path stroke="black" stroke-width="3" stroke-dasharray="1,2" d="M418 704l0 -639"/>
<text stroke="none" fill="black" font-size="16" x="403" y="728">
2.0
</text>
<path stroke="black" stroke-width="3" stroke-dasharray="1,2" d="M510 704l0 -639"/>
<text stroke="none" fill="black" font-size="16" x="495" y="728">
2.5
</text>
<path stroke="black" stroke-width="3" stroke-dasharray="1,2" d="M602 704l0 -639"/>
<text stroke="none" fill="black" font-size="16" x="587" y="728">
3.0
</text>
<path stroke="black" stroke-width="3" stroke-dasharray="1,2" d="M694 704l0 -639"/>
<text stroke="none" fill="black" font-size="16" x="679" y="728">
3.5
</text>
<path stroke="black" stroke-width="3" stroke-dasharray="1,2" d="M786 704l0 -639"/>
<text stroke="none" fill="black" font-size="16" x="771" y="728">
4.0
</text>
<path stroke="black" stroke-width="3" stroke-dasharray="1,2" d="M878 704l0 -639"/>
<text stroke="none" fill="black" font-size="16" x="863" y="728">
4.5
</text>
<path stroke="black" stroke-width="3" stroke-dasharray="1,2" d="M970 704l0 -639"/>
<text stroke="none" fill="black" font-size="16" x="955" y="728">
5.0
</text>
<text stroke="none" fill="black" font-size="16" x="614" y="752">
ns
</text>
<path stroke="black" stroke-width="3" d="M50 704l920 0"/>
<text stroke="none" fill="black" font-size="16" x="18" y="712">
0.0
</text>
<path stroke="black" stroke-width="3" stroke-dasharray="1,2" d="M50 633l920 0"/>
<text stroke="none" fill="black" font-size="16" x="18" y="641">
0.2
</text>
<path stroke="black" stroke-width="3" stroke-dasharray="1,2" d="M50 562l920 0"/>
<text stroke="none" fill="black" font-size="16" x="18" y="570">
0.4
</text>
<path stroke="black" stroke-width="3" stroke-dasharray="1,2" d="M50 491l920 0"/>
<text stroke="none" fill="black" font-size="16" x="18" y="499">
0.6
</text>
<path stroke="black" stroke-width="3" stroke-dasharray="1,2" d="M50 420l920 0"/>
<text stroke="none" fill="black" font-size="16" x="18" y="428">
0.8
</text>
<path stroke="black" stroke-width="3" stroke-dasharray="1,2" d="M50 349l920 0"/>
<text stroke="none" fill="black" font-size="16" x="18" y="357">
1.0
</text>
<path stroke="black" stroke-width="3" stroke-dasharray="1,2" d="M50 278l920 0"/>
<text stroke="none" fill="black" font-size="16" x="18" y="286">
1.2
</text>
<path stroke="black" stroke-width="3" stroke-dasharray="1,2" d="M50 207l920 0"/>
<text stroke="none" fill="black" font-size="16" x="18" y="215">
1.4
</text>
<path stroke="black" stroke-width="3" stroke-dasharray="1,2" d="M50 136l920 0"/>
<text stroke="none" fill="black" font-size="16" x="18" y="144">
1.6
</text>
<path stroke="black" stroke-width="3" stroke-dasharray="1,2" d="M50 65l920 0"/>
<text stroke="none" fill="black" font-size="16" x="18" y="73">
1.8
</text>
<text stroke="none" fill="black" font-size="16" x="10" y="32">
     
</text>
<path stroke="red" d="M460 23l46 0"/>
<text stroke="none" fill="black" font-size="16" x="516" y="32">
v(in)
</text>
<path stroke="red" d="M50 704l1 0 2 0 3 0 6 0 6 0 1 -64 2 -128 4 -255 3 -192 1 0 2 0 4 0 8 0 15 0 19 0 18 0 18 0 19 0 15 0 2 0 4 0 7 0 15 0 18 0 19 0 18 0 18 0 19 0 18 0 19 0 18 0 18 0 19 0 18 0 19 0 18 0 18 0 19 0 18 0 19 0 18 0 18 0 19 0 18 0"/>
<path stroke="red" d="M611 65l19 0 18 0 18 0 19 0 18 0 19 0 18 0 18 0 19 0 18 0 19 0 18 0 18 0 19 0 18 0 19 0 18 0 18 0 19 0 9 0"/>
<path stroke="blue" d="M50 23l46 0"/>
<text stroke="none" fill="black" font-size="16" x="106" y="32">
v(out)
</text>
<path stroke="blue" d="M50 704l1 0 2 0 3 0 6 0 6 0 1 -2 2 -6 4 -29 3 -37 0 -7 1 -15 2 -28 4 -51 8 -89 15 -130 19 -98 18 -59 18 -35 19 -21 15 -11 2 -1 4 -2 7 -3 15 -5 18 -4 19 -2 18 -2 18 -1 19 0 18 -1 19 0 18 0 18 0 19 0 18 0 19 0 18 0 18 0 19 0"/>
<path stroke="blue" d="M501 65l18 0 19 0 18 0 18 0 19 0 18 0 19 0 18 0 18 0 19 0 18 0 19 0 18 0 18 0 19 0 18 0 19 0 18 0 18 0 19 0 18 0 19 0 18 0 18 0 19 0 9 0"/>
<path stroke="#FFA500" d="M460 39l46 0"/>
<text stroke="none" fill="black" font-size="16" x="516" y="48">
v(in,out)
</text>
<path stroke="#FFA500" d="M50 704l1 0 2 0 3 0 6 0 6 0 1 -62 2 -122 4 -226 3 -155 0 7 1 15 2 28 4 51 8 89 15 130 19 98 18 59 18 35 19 21 15 11 2 1 4 2 7 3 15 5 18 4 19 2 18 2 18 1 19 0 18 1 19 0 18 0 18 0 19 0 18 0 19 0 18 0 18 0 19 0 18 0 19 0"/>
<path stroke="#FFA500" d="M538 704l18 0 18 0 19 0 18 0 19 0 18 0 18 0 19 0 18 0 19 0 18 0 18 0 19 0 18 0 19 0 18 0 18 0 19 0 18 0 19 0 18 0 18 0 19 0 9 0"/>
</svg>
