<?xml version="1.0" standalone="yes"?>
<!DOCTYPE svg PUBLIC "-//W3C//DTD SVG 1.1//EN"
 "http://www.w3.org/Graphics/SVG/1.1/DTD/svg11.dtd">
<svg xmlns="http://www.w3.org/2000/svg" version="1.1"
  width="100%" height="100%" viewBox="0 0 1024 768"
  style="fill: none; stroke-width: 3; font-family: Helvetica;
 font: Helvetica;
">

<!-- Creator: NGspice -->

<rect x="0" y="0" width="1024" height="768" fill="white" stroke="none"/>
<text stroke="none" fill="black" font-size="16" x="358" y="752">
v-sweep
</text>
<text stroke="none" fill="black" font-size="16" x="10" y="16">
dc1: NMOS_Transfer_Characteristic_65nm_U24ec025
</text>
<path stroke="black" stroke-width="3" stroke-dasharray="1,2" d="M70 704l0 -638"/>
<text stroke="none" fill="black" font-size="16" x="50" y="728">
0.50
</text>
<path stroke="black" stroke-width="3" stroke-dasharray="1,2" d="M196 704l0 -638"/>
<text stroke="none" fill="black" font-size="16" x="176" y="728">
0.60
</text>
<path stroke="black" stroke-width="3" stroke-dasharray="1,2" d="M322 704l0 -638"/>
<text stroke="none" fill="black" font-size="16" x="302" y="728">
0.70
</text>
<path stroke="black" stroke-width="3" stroke-dasharray="1,2" d="M448 704l0 -638"/>
<text stroke="none" fill="black" font-size="16" x="428" y="728">
0.80
</text>
<path stroke="black" stroke-width="3" stroke-dasharray="1,2" d="M574 704l0 -638"/>
<text stroke="none" fill="black" font-size="16" x="554" y="728">
0.90
</text>
<path stroke="black" stroke-width="3" stroke-dasharray="1,2" d="M700 704l0 -638"/>
<text stroke="none" fill="black" font-size="16" x="680" y="728">
1.00
</text>
<path stroke="black" stroke-width="3" stroke-dasharray="1,2" d="M826 704l0 -638"/>
<text stroke="none" fill="black" font-size="16" x="806" y="728">
1.10
</text>
<path stroke="black" stroke-width="3" stroke-dasharray="1,2" d="M952 704l0 -638"/>
<text stroke="none" fill="black" font-size="16" x="932" y="728">
1.20
</text>
<text stroke="none" fill="black" font-size="16" x="614" y="752">
V
</text>
<path stroke="black" stroke-width="3" stroke-dasharray="1,2" d="M70 704l882 0"/>
<text stroke="none" fill="black" font-size="16" x="8" y="712">
-100.0
</text>
<path stroke="black" stroke-width="3" d="M70 646l882 0"/>
<text stroke="none" fill="black" font-size="16" x="38" y="654">
0.0
</text>
<path stroke="black" stroke-width="3" stroke-dasharray="1,2" d="M70 588l882 0"/>
<text stroke="none" fill="black" font-size="16" x="18" y="596">
100.0
</text>
<path stroke="black" stroke-width="3" stroke-dasharray="1,2" d="M70 530l882 0"/>
<text stroke="none" fill="black" font-size="16" x="18" y="538">
200.0
</text>
<path stroke="black" stroke-width="3" stroke-dasharray="1,2" d="M70 472l882 0"/>
<text stroke="none" fill="black" font-size="16" x="18" y="480">
300.0
</text>
<path stroke="black" stroke-width="3" stroke-dasharray="1,2" d="M70 414l882 0"/>
<text stroke="none" fill="black" font-size="16" x="18" y="422">
400.0
</text>
<path stroke="black" stroke-width="3" stroke-dasharray="1,2" d="M70 356l882 0"/>
<text stroke="none" fill="black" font-size="16" x="18" y="364">
500.0
</text>
<path stroke="black" stroke-width="3" stroke-dasharray="1,2" d="M70 298l882 0"/>
<text stroke="none" fill="black" font-size="16" x="18" y="306">
600.0
</text>
<path stroke="black" stroke-width="3" stroke-dasharray="1,2" d="M70 240l882 0"/>
<text stroke="none" fill="black" font-size="16" x="18" y="248">
700.0
</text>
<path stroke="black" stroke-width="3" stroke-dasharray="1,2" d="M70 182l882 0"/>
<text stroke="none" fill="black" font-size="16" x="18" y="190">
800.0
</text>
<path stroke="black" stroke-width="3" stroke-dasharray="1,2" d="M70 124l882 0"/>
<text stroke="none" fill="black" font-size="16" x="18" y="132">
900.0
</text>
<path stroke="black" stroke-width="3" stroke-dasharray="1,2" d="M70 66l882 0"/>
<text stroke="none" fill="black" font-size="16" x="8" y="74">
1000.0
</text>
<text stroke="none" fill="black" font-size="16" x="10" y="32">
nA
</text>
<path stroke="red" d="M441 23l44 0"/>
<text stroke="none" fill="black" font-size="16" x="495" y="32">
-i(vgs)
</text>
<path stroke="red" d="M70 642l25 -1 25 -1 26 -1 25 -2 25 -1 25 -2 25 -2 26 -3 25 -3 25 -3 25 -3 25 -5 26 -4 25 -6 25 -6 25 -7 25 -7 26 -9 25 -10 25 -11 25 -12 25 -14 26 -15 25 -18 25 -19 25 -22 25 -24 26 -27 25 -30 25 -33 25 -38 25 -41 26 -46"/>
<path stroke="red" d="M902 216l25 -51 25 -57M70 643l25 0 25 -1 26 -1 25 -1 25 -2 25 -1 25 -2 26 -2 25 -2 25 -3 25 -2 25 -4 26 -4 25 -4 25 -5 25 -5 25 -6 26 -7 25 -8 25 -9 25 -9 25 -11 26 -12 25 -14 25 -15 25 -17 25 -19 26 -21 25 -24 25 -26 25 -28"/>
<path stroke="red" d="M851 378l25 -33 26 -35 25 -39 25 -44M70 650l25 -2 25 -2 26 -1 25 -2 25 -2 25 -2 25 -3 26 -2 25 -3 25 -3 25 -4 25 -4 26 -5 25 -5 25 -5 25 -7 25 -7 26 -8 25 -9 25 -10 25 -11 25 -13 26 -14 25 -15 25 -18 25 -19 25 -22 26 -24"/>
<path stroke="red" d="M776 428l25 -26 25 -30 25 -33 25 -37 26 -40 25 -45 25 -49"/>
</svg>
