<?xml version="1.0" standalone="yes"?>
<!DOCTYPE svg PUBLIC "-//W3C//DTD SVG 1.1//EN"
 "http://www.w3.org/Graphics/SVG/1.1/DTD/svg11.dtd">
<svg xmlns="http://www.w3.org/2000/svg" version="1.1"
  width="100%" height="100%" viewBox="0 0 1024 768"
  style="fill: none; stroke-width: 3; font-family: Helvetica;
 font: Helvetica;
">

<!-- Creator: NGspice -->

<rect x="0" y="0" width="1024" height="768" fill="white" stroke="none"/>
<text stroke="none" fill="black" font-size="16" x="358" y="752">
vin
</text>
<text transform="rotate(-90, 20, 404)"  stroke="none" fill="black" font-size="16" x="20" y="404">
vout
</text>
<text stroke="none" fill="black" font-size="16" x="10" y="16">
dc1: NMOS_inverter_Transfer_Characteristic_65nm_U24EC025
</text>
<path stroke="black" stroke-width="3" stroke-dasharray="1,2" d="M75 704l0 -636"/>
<text stroke="none" fill="black" font-size="16" x="55" y="728">
-1.2
</text>
<path stroke="black" stroke-width="3" stroke-dasharray="1,2" d="M149 704l0 -636"/>
<text stroke="none" fill="black" font-size="16" x="129" y="728">
-1.1
</text>
<path stroke="black" stroke-width="3" stroke-dasharray="1,2" d="M223 704l0 -636"/>
<text stroke="none" fill="black" font-size="16" x="203" y="728">
-1.0
</text>
<path stroke="black" stroke-width="3" stroke-dasharray="1,2" d="M297 704l0 -636"/>
<text stroke="none" fill="black" font-size="16" x="277" y="728">
-0.9
</text>
<path stroke="black" stroke-width="3" stroke-dasharray="1,2" d="M371 704l0 -636"/>
<text stroke="none" fill="black" font-size="16" x="351" y="728">
-0.8
</text>
<path stroke="black" stroke-width="3" stroke-dasharray="1,2" d="M445 704l0 -636"/>
<text stroke="none" fill="black" font-size="16" x="425" y="728">
-0.7
</text>
<path stroke="black" stroke-width="3" stroke-dasharray="1,2" d="M519 704l0 -636"/>
<text stroke="none" fill="black" font-size="16" x="499" y="728">
-0.6
</text>
<path stroke="black" stroke-width="3" stroke-dasharray="1,2" d="M593 704l0 -636"/>
<text stroke="none" fill="black" font-size="16" x="573" y="728">
-0.5
</text>
<path stroke="black" stroke-width="3" stroke-dasharray="1,2" d="M667 704l0 -636"/>
<text stroke="none" fill="black" font-size="16" x="647" y="728">
-0.4
</text>
<path stroke="black" stroke-width="3" stroke-dasharray="1,2" d="M741 704l0 -636"/>
<text stroke="none" fill="black" font-size="16" x="721" y="728">
-0.3
</text>
<path stroke="black" stroke-width="3" stroke-dasharray="1,2" d="M815 704l0 -636"/>
<text stroke="none" fill="black" font-size="16" x="795" y="728">
-0.2
</text>
<path stroke="black" stroke-width="3" stroke-dasharray="1,2" d="M889 704l0 -636"/>
<text stroke="none" fill="black" font-size="16" x="869" y="728">
-0.1
</text>
<path stroke="black" stroke-width="3" d="M963 704l0 -636"/>
<text stroke="none" fill="black" font-size="16" x="943" y="728">
-0.0
</text>
<text stroke="none" fill="black" font-size="16" x="614" y="752">
V
</text>
<path stroke="black" stroke-width="3" stroke-dasharray="1,2" d="M75 704l888 0"/>
<text stroke="none" fill="black" font-size="16" x="33" y="712">
-1.2
</text>
<path stroke="black" stroke-width="3" stroke-dasharray="1,2" d="M75 651l888 0"/>
<text stroke="none" fill="black" font-size="16" x="33" y="659">
-1.1
</text>
<path stroke="black" stroke-width="3" stroke-dasharray="1,2" d="M75 598l888 0"/>
<text stroke="none" fill="black" font-size="16" x="33" y="606">
-1.0
</text>
<path stroke="black" stroke-width="3" stroke-dasharray="1,2" d="M75 545l888 0"/>
<text stroke="none" fill="black" font-size="16" x="33" y="553">
-0.9
</text>
<path stroke="black" stroke-width="3" stroke-dasharray="1,2" d="M75 492l888 0"/>
<text stroke="none" fill="black" font-size="16" x="33" y="500">
-0.8
</text>
<path stroke="black" stroke-width="3" stroke-dasharray="1,2" d="M75 439l888 0"/>
<text stroke="none" fill="black" font-size="16" x="33" y="447">
-0.7
</text>
<path stroke="black" stroke-width="3" stroke-dasharray="1,2" d="M75 386l888 0"/>
<text stroke="none" fill="black" font-size="16" x="33" y="394">
-0.6
</text>
<path stroke="black" stroke-width="3" stroke-dasharray="1,2" d="M75 333l888 0"/>
<text stroke="none" fill="black" font-size="16" x="33" y="341">
-0.5
</text>
<path stroke="black" stroke-width="3" stroke-dasharray="1,2" d="M75 280l888 0"/>
<text stroke="none" fill="black" font-size="16" x="33" y="288">
-0.4
</text>
<path stroke="black" stroke-width="3" stroke-dasharray="1,2" d="M75 227l888 0"/>
<text stroke="none" fill="black" font-size="16" x="33" y="235">
-0.3
</text>
<path stroke="black" stroke-width="3" stroke-dasharray="1,2" d="M75 174l888 0"/>
<text stroke="none" fill="black" font-size="16" x="33" y="182">
-0.2
</text>
<path stroke="black" stroke-width="3" stroke-dasharray="1,2" d="M75 121l888 0"/>
<text stroke="none" fill="black" font-size="16" x="33" y="129">
-0.1
</text>
<path stroke="black" stroke-width="3" d="M75 68l888 0"/>
<text stroke="none" fill="black" font-size="16" x="33" y="76">
-0.0
</text>
<text stroke="none" fill="black" font-size="16" x="10" y="32">
V
</text>
<path stroke="red" d="M444 23l44 0"/>
<text stroke="none" fill="black" font-size="16" x="498" y="32">
v(d_out)
</text>
<path stroke="red" d="M963 68l-15 0 -15 0 -14 0 -15 0 -15 0 -15 0 -15 0 -14 1 -15 1 -15 2 -15 3 -15 4 -14 5 -15 6 -15 7 -15 7 -15 6 -14 6 -15 5 -15 5 -15 4 -15 3 -14 3 -15 3 -15 2 -15 3 -15 2 -14 2 -15 2 -15 2 -15 2 -15 2 -14 2 -15 1 -15 2 -15 2"/>
<path stroke="red" d="M430 163l-15 2 -14 1 -15 2 -15 2 -15 1 -15 2 -14 2 -15 1 -15 2 -15 1 -15 2 -14 2 -15 1 -15 2 -15 1 -15 2 -14 1 -15 2 -15 1 -15 1 -15 2 -14 1 -15 2 -15 1"/>
<path stroke="blue" d="M75 23l44 0"/>
<text stroke="none" fill="black" font-size="16" x="129" y="32">
v(g)
</text>
<path stroke="blue" d="M963 68l-15 11 -15 10 -14 11 -15 10 -15 11 -15 11 -15 10 -14 11 -15 10 -15 11 -15 11 -15 10 -14 11 -15 10 -15 11 -15 11 -15 10 -14 11 -15 10 -15 11 -15 11 -15 10 -14 11 -15 10 -15 11 -15 11 -15 10 -14 11 -15 10 -15 11 -15 11"/>
<path stroke="blue" d="M504 397l-15 10 -14 11 -15 10 -15 11 -15 11 -15 10 -14 11 -15 10 -15 11 -15 11 -15 10 -14 11 -15 10 -15 11 -15 11 -15 10 -14 11 -15 10 -15 11 -15 11 -15 10 -14 11 -15 10 -15 11 -15 11 -15 10 -14 11 -15 10 -15 11"/>
</svg>
