<?xml version="1.0" standalone="yes"?>
<!DOCTYPE svg PUBLIC "-//W3C//DTD SVG 1.1//EN"
 "http://www.w3.org/Graphics/SVG/1.1/DTD/svg11.dtd">
<svg xmlns="http://www.w3.org/2000/svg" version="1.1"
  width="100%" height="100%" viewBox="0 0 1024 768"
  style="fill: none; stroke-width: 3; font-family: Helvetica;
 font: Helvetica;
">

<!-- Creator: NGspice -->

<rect x="0" y="0" width="1024" height="768" fill="white" stroke="none"/>
<text stroke="none" fill="black" font-size="16" x="358" y="752">
v-sweep
</text>
<text stroke="none" fill="black" font-size="16" x="10" y="16">
dc1: NMOS_Transfer_Characteristic_130nm_U24ec025
</text>
<path stroke="black" stroke-width="3" d="M60 704l0 -636"/>
<text stroke="none" fill="black" font-size="16" x="45" y="728">
0.0
</text>
<path stroke="black" stroke-width="3" stroke-dasharray="1,2" d="M135 704l0 -636"/>
<text stroke="none" fill="black" font-size="16" x="120" y="728">
0.1
</text>
<path stroke="black" stroke-width="3" stroke-dasharray="1,2" d="M210 704l0 -636"/>
<text stroke="none" fill="black" font-size="16" x="195" y="728">
0.2
</text>
<path stroke="black" stroke-width="3" stroke-dasharray="1,2" d="M285 704l0 -636"/>
<text stroke="none" fill="black" font-size="16" x="270" y="728">
0.3
</text>
<path stroke="black" stroke-width="3" stroke-dasharray="1,2" d="M360 704l0 -636"/>
<text stroke="none" fill="black" font-size="16" x="345" y="728">
0.4
</text>
<path stroke="black" stroke-width="3" stroke-dasharray="1,2" d="M435 704l0 -636"/>
<text stroke="none" fill="black" font-size="16" x="420" y="728">
0.5
</text>
<path stroke="black" stroke-width="3" stroke-dasharray="1,2" d="M510 704l0 -636"/>
<text stroke="none" fill="black" font-size="16" x="495" y="728">
0.6
</text>
<path stroke="black" stroke-width="3" stroke-dasharray="1,2" d="M585 704l0 -636"/>
<text stroke="none" fill="black" font-size="16" x="570" y="728">
0.7
</text>
<path stroke="black" stroke-width="3" stroke-dasharray="1,2" d="M660 704l0 -636"/>
<text stroke="none" fill="black" font-size="16" x="645" y="728">
0.8
</text>
<path stroke="black" stroke-width="3" stroke-dasharray="1,2" d="M735 704l0 -636"/>
<text stroke="none" fill="black" font-size="16" x="720" y="728">
0.9
</text>
<path stroke="black" stroke-width="3" stroke-dasharray="1,2" d="M810 704l0 -636"/>
<text stroke="none" fill="black" font-size="16" x="795" y="728">
1.0
</text>
<path stroke="black" stroke-width="3" stroke-dasharray="1,2" d="M885 704l0 -636"/>
<text stroke="none" fill="black" font-size="16" x="870" y="728">
1.1
</text>
<path stroke="black" stroke-width="3" stroke-dasharray="1,2" d="M960 704l0 -636"/>
<text stroke="none" fill="black" font-size="16" x="945" y="728">
1.2
</text>
<text stroke="none" fill="black" font-size="16" x="614" y="752">
V
</text>
<path stroke="black" stroke-width="3" d="M60 704l900 0"/>
<text stroke="none" fill="black" font-size="16" x="18" y="712">
-0.0
</text>
<path stroke="black" stroke-width="3" stroke-dasharray="1,2" d="M60 598l900 0"/>
<text stroke="none" fill="black" font-size="16" x="28" y="606">
5.0
</text>
<path stroke="black" stroke-width="3" stroke-dasharray="1,2" d="M60 492l900 0"/>
<text stroke="none" fill="black" font-size="16" x="18" y="500">
10.0
</text>
<path stroke="black" stroke-width="3" stroke-dasharray="1,2" d="M60 386l900 0"/>
<text stroke="none" fill="black" font-size="16" x="18" y="394">
15.0
</text>
<path stroke="black" stroke-width="3" stroke-dasharray="1,2" d="M60 280l900 0"/>
<text stroke="none" fill="black" font-size="16" x="18" y="288">
20.0
</text>
<path stroke="black" stroke-width="3" stroke-dasharray="1,2" d="M60 174l900 0"/>
<text stroke="none" fill="black" font-size="16" x="18" y="182">
25.0
</text>
<path stroke="black" stroke-width="3" stroke-dasharray="1,2" d="M60 68l900 0"/>
<text stroke="none" fill="black" font-size="16" x="18" y="76">
30.0
</text>
<text stroke="none" fill="black" font-size="16" x="10" y="32">
mA
</text>
<path stroke="red" d="M450 23l45 0"/>
<text stroke="none" fill="black" font-size="16" x="505" y="32">
-i(vds)
</text>
<path stroke="red" d="M60 704l15 0 15 0 15 0 15 0 15 0 15 0 15 0 15 0 15 0 15 0 15 0 15 0 15 0 15 0 15 0 15 0 15 0 15 0 15 0 15 0 15 0 15 0 15 0 15 0 15 0 15 0 15 0 15 0 15 0 15 0 15 0 15 0 15 0 15 0 15 0 15 0 15 0 15 0 15 0 15 0 15 0 15 0 15 0"/>
<path stroke="red" d="M705 704l15 0 15 0 15 0 15 0 15 0 15 0 15 0 15 0 15 0 15 0 15 0 15 0 15 0 15 0 15 0 15 0 15 0M60 704l15 -1 15 -1 15 -1 15 0 15 0 15 0 15 0 15 0 15 -1 15 0 15 0 15 0 15 0 15 0 15 0 15 0 15 -1 15 0 15 0 15 0 15 0 15 0 15 -1"/>
<path stroke="red" d="M405 698l15 0 15 0 15 0 15 0 15 0 15 -1 15 0 15 0 15 0 15 0 15 -1 15 0 15 0 15 0 15 0 15 -1 15 0 15 0 15 0 15 -1 15 0 15 0 15 -1 15 0 15 0 15 0 15 -1 15 0 15 0 15 -1 15 0 15 0 15 -1 15 0 15 0 15 -1 15 0M60 704l15 -23 15 -21"/>
<path stroke="red" d="M90 660l15 -17 15 -14 15 -12 15 -10 15 -7 15 -6 15 -4 15 -3 15 -3 15 -2 15 -2 15 -2 15 -2 15 -1 15 -2 15 -1 15 -1 15 -2 15 -1 15 -1 15 -2 15 -1 15 -1 15 -2 15 -1 15 -1 15 -1 15 -2 15 -1 15 -1 15 -1 15 -2 15 -1 15 -1 15 -1"/>
<path stroke="red" d="M615 548l15 -1 15 -2 15 -1 15 -1 15 -1 15 -2 15 -1 15 -1 15 -1 15 -1 15 -2 15 -1 15 -1 15 -1 15 -2 15 -1 15 -1 15 -1 15 -2 15 -1 15 -1 15 -1 15 -1M60 704l15 -36 15 -34 15 -31 15 -29 15 -26 15 -25 15 -22 15 -20 15 -18 15 -16"/>
<path stroke="red" d="M210 447l15 -14 15 -12 15 -10 15 -8 15 -7 15 -5 15 -5 15 -4 15 -3 15 -3 15 -3 15 -3 15 -2 15 -2 15 -2 15 -2 15 -2 15 -2 15 -2 15 -1 15 -2 15 -2 15 -2 15 -1 15 -2 15 -1 15 -2 15 -2 15 -1 15 -2 15 -1 15 -2 15 -1 15 -2 15 -1"/>
<path stroke="red" d="M735 331l15 -2 15 -1 15 -2 15 -1 15 -2 15 -1 15 -2 15 -1 15 -2 15 -1 15 -2 15 -1 15 -2 15 -1 15 -2M60 704l15 -42 15 -40 15 -38 15 -36 15 -34 15 -32 15 -31 15 -28 15 -28 15 -25 15 -24 15 -23 15 -20 15 -19 15 -18 15 -16 15 -14"/>
<path stroke="red" d="M315 236l15 -12 15 -11 15 -9 15 -7 15 -7 15 -5 15 -5 15 -5 15 -3 15 -4 15 -3 15 -3 15 -3 15 -2 15 -3 15 -2 15 -2 15 -3 15 -2 15 -2 15 -2 15 -2 15 -2 15 -2 15 -2 15 -2 15 -1 15 -2 15 -2 15 -2 15 -2 15 -1 15 -2 15 -2 15 -2"/>
<path stroke="red" d="M840 115l15 -1 15 -2 15 -2 15 -1 15 -2 15 -2 15 -1 15 -2"/>
</svg>
