<?xml version="1.0" standalone="yes"?>
<!DOCTYPE svg PUBLIC "-//W3C//DTD SVG 1.1//EN"
 "http://www.w3.org/Graphics/SVG/1.1/DTD/svg11.dtd">
<svg xmlns="http://www.w3.org/2000/svg" version="1.1"
  width="100%" height="100%" viewBox="0 0 1024 768"
  style="fill: none; stroke-width: 3; font-family: Helvetica;
 font: Helvetica;
">

<!-- Creator: NGspice -->

<rect x="0" y="0" width="1024" height="768" fill="white" stroke="none"/>
<text stroke="none" fill="black" font-size="16" x="358" y="752">
v-sweep
</text>
<text stroke="none" fill="black" font-size="16" x="10" y="16">
dc1: NMOS_Transfer_Characteristic_90nm_U24ec025
</text>
<path stroke="black" stroke-width="3" stroke-dasharray="1,2" d="M70 704l0 -640"/>
<text stroke="none" fill="black" font-size="16" x="50" y="728">
0.50
</text>
<path stroke="black" stroke-width="3" stroke-dasharray="1,2" d="M196 704l0 -640"/>
<text stroke="none" fill="black" font-size="16" x="176" y="728">
0.60
</text>
<path stroke="black" stroke-width="3" stroke-dasharray="1,2" d="M322 704l0 -640"/>
<text stroke="none" fill="black" font-size="16" x="302" y="728">
0.70
</text>
<path stroke="black" stroke-width="3" stroke-dasharray="1,2" d="M448 704l0 -640"/>
<text stroke="none" fill="black" font-size="16" x="428" y="728">
0.80
</text>
<path stroke="black" stroke-width="3" stroke-dasharray="1,2" d="M574 704l0 -640"/>
<text stroke="none" fill="black" font-size="16" x="554" y="728">
0.90
</text>
<path stroke="black" stroke-width="3" stroke-dasharray="1,2" d="M700 704l0 -640"/>
<text stroke="none" fill="black" font-size="16" x="680" y="728">
1.00
</text>
<path stroke="black" stroke-width="3" stroke-dasharray="1,2" d="M826 704l0 -640"/>
<text stroke="none" fill="black" font-size="16" x="806" y="728">
1.10
</text>
<path stroke="black" stroke-width="3" stroke-dasharray="1,2" d="M952 704l0 -640"/>
<text stroke="none" fill="black" font-size="16" x="932" y="728">
1.20
</text>
<text stroke="none" fill="black" font-size="16" x="614" y="752">
V
</text>
<path stroke="black" stroke-width="3" stroke-dasharray="1,2" d="M70 704l882 0"/>
<text stroke="none" fill="black" font-size="16" x="18" y="712">
-50.0
</text>
<path stroke="black" stroke-width="3" d="M70 624l882 0"/>
<text stroke="none" fill="black" font-size="16" x="38" y="632">
0.0
</text>
<path stroke="black" stroke-width="3" stroke-dasharray="1,2" d="M70 544l882 0"/>
<text stroke="none" fill="black" font-size="16" x="28" y="552">
50.0
</text>
<path stroke="black" stroke-width="3" stroke-dasharray="1,2" d="M70 464l882 0"/>
<text stroke="none" fill="black" font-size="16" x="18" y="472">
100.0
</text>
<path stroke="black" stroke-width="3" stroke-dasharray="1,2" d="M70 384l882 0"/>
<text stroke="none" fill="black" font-size="16" x="18" y="392">
150.0
</text>
<path stroke="black" stroke-width="3" stroke-dasharray="1,2" d="M70 304l882 0"/>
<text stroke="none" fill="black" font-size="16" x="18" y="312">
200.0
</text>
<path stroke="black" stroke-width="3" stroke-dasharray="1,2" d="M70 224l882 0"/>
<text stroke="none" fill="black" font-size="16" x="18" y="232">
250.0
</text>
<path stroke="black" stroke-width="3" stroke-dasharray="1,2" d="M70 144l882 0"/>
<text stroke="none" fill="black" font-size="16" x="18" y="152">
300.0
</text>
<path stroke="black" stroke-width="3" stroke-dasharray="1,2" d="M70 64l882 0"/>
<text stroke="none" fill="black" font-size="16" x="18" y="72">
350.0
</text>
<text stroke="none" fill="black" font-size="16" x="10" y="32">
nA
</text>
<path stroke="red" d="M441 23l44 0"/>
<text stroke="none" fill="black" font-size="16" x="495" y="32">
-i(vgs)
</text>
<path stroke="red" d="M70 621l25 -1 25 0 26 -1 25 -1 25 -2 25 -1 25 -2 26 -2 25 -2 25 -3 25 -3 25 -3 26 -4 25 -5 25 -5 25 -6 25 -6 26 -8 25 -8 25 -10 25 -11 25 -13 26 -14 25 -16 25 -18 25 -20 25 -23 26 -26 25 -28 25 -33 25 -36 25 -41 26 -46 25 -52"/>
<path stroke="red" d="M927 171l25 -57M70 622l25 -1 25 0 26 -1 25 -1 25 -1 25 -1 25 -1 26 -2 25 -2 25 -2 25 -2 25 -3 26 -3 25 -4 25 -4 25 -5 25 -5 26 -6 25 -7 25 -7 25 -9 25 -10 26 -11 25 -13 25 -14 25 -16 25 -18 26 -20 25 -22 25 -26 25 -28 25 -32"/>
<path stroke="red" d="M876 345l26 -35 25 -40 25 -44M70 626l25 -1 25 -1 26 -1 25 -2 25 -1 25 -2 25 -2 26 -2 25 -2 25 -3 25 -2 25 -4 26 -3 25 -5 25 -4 25 -6 25 -6 26 -7 25 -7 25 -9 25 -10 25 -11 26 -13 25 -14 25 -16 25 -18 25 -21 26 -22 25 -26"/>
<path stroke="red" d="M801 405l25 -28 25 -32 25 -36 26 -40 25 -44 25 -50"/>
</svg>
