<?xml version="1.0" standalone="yes"?>
<!DOCTYPE svg PUBLIC "-//W3C//DTD SVG 1.1//EN"
 "http://www.w3.org/Graphics/SVG/1.1/DTD/svg11.dtd">
<svg xmlns="http://www.w3.org/2000/svg" version="1.1"
  width="100%" height="100%" viewBox="0 0 1024 768"
  style="fill: none; stroke-width: 3; font-family: Helvetica;
 font: Helvetica;
">

<!-- Creator: NGspice -->

<rect x="0" y="0" width="1024" height="768" fill="white" stroke="none"/>
<text stroke="none" fill="black" font-size="16" x="358" y="752">
v-sweep
</text>
<text stroke="none" fill="black" font-size="16" x="10" y="16">
dc1: PMOS_Transfer_Characteristic_130nm_U24ec025
</text>
<path stroke="black" stroke-width="3" stroke-dasharray="1,2" d="M70 704l0 -639"/>
<text stroke="none" fill="black" font-size="16" x="45" y="728">
-1.20
</text>
<path stroke="black" stroke-width="3" stroke-dasharray="1,2" d="M196 704l0 -639"/>
<text stroke="none" fill="black" font-size="16" x="171" y="728">
-1.10
</text>
<path stroke="black" stroke-width="3" stroke-dasharray="1,2" d="M322 704l0 -639"/>
<text stroke="none" fill="black" font-size="16" x="297" y="728">
-1.00
</text>
<path stroke="black" stroke-width="3" stroke-dasharray="1,2" d="M448 704l0 -639"/>
<text stroke="none" fill="black" font-size="16" x="423" y="728">
-0.90
</text>
<path stroke="black" stroke-width="3" stroke-dasharray="1,2" d="M574 704l0 -639"/>
<text stroke="none" fill="black" font-size="16" x="549" y="728">
-0.80
</text>
<path stroke="black" stroke-width="3" stroke-dasharray="1,2" d="M700 704l0 -639"/>
<text stroke="none" fill="black" font-size="16" x="675" y="728">
-0.70
</text>
<path stroke="black" stroke-width="3" stroke-dasharray="1,2" d="M826 704l0 -639"/>
<text stroke="none" fill="black" font-size="16" x="801" y="728">
-0.60
</text>
<path stroke="black" stroke-width="3" stroke-dasharray="1,2" d="M952 704l0 -639"/>
<text stroke="none" fill="black" font-size="16" x="927" y="728">
-0.50
</text>
<text stroke="none" fill="black" font-size="16" x="614" y="752">
V
</text>
<path stroke="black" stroke-width="3" stroke-dasharray="1,2" d="M70 704l882 0"/>
<text stroke="none" fill="black" font-size="16" x="8" y="712">
-160.0
</text>
<path stroke="black" stroke-width="3" stroke-dasharray="1,2" d="M70 633l882 0"/>
<text stroke="none" fill="black" font-size="16" x="8" y="641">
-140.0
</text>
<path stroke="black" stroke-width="3" stroke-dasharray="1,2" d="M70 562l882 0"/>
<text stroke="none" fill="black" font-size="16" x="8" y="570">
-120.0
</text>
<path stroke="black" stroke-width="3" stroke-dasharray="1,2" d="M70 491l882 0"/>
<text stroke="none" fill="black" font-size="16" x="8" y="499">
-100.0
</text>
<path stroke="black" stroke-width="3" stroke-dasharray="1,2" d="M70 420l882 0"/>
<text stroke="none" fill="black" font-size="16" x="18" y="428">
-80.0
</text>
<path stroke="black" stroke-width="3" stroke-dasharray="1,2" d="M70 349l882 0"/>
<text stroke="none" fill="black" font-size="16" x="18" y="357">
-60.0
</text>
<path stroke="black" stroke-width="3" stroke-dasharray="1,2" d="M70 278l882 0"/>
<text stroke="none" fill="black" font-size="16" x="18" y="286">
-40.0
</text>
<path stroke="black" stroke-width="3" stroke-dasharray="1,2" d="M70 207l882 0"/>
<text stroke="none" fill="black" font-size="16" x="18" y="215">
-20.0
</text>
<path stroke="black" stroke-width="3" d="M70 136l882 0"/>
<text stroke="none" fill="black" font-size="16" x="38" y="144">
0.0
</text>
<path stroke="black" stroke-width="3" stroke-dasharray="1,2" d="M70 65l882 0"/>
<text stroke="none" fill="black" font-size="16" x="28" y="73">
20.0
</text>
<text stroke="none" fill="black" font-size="16" x="10" y="32">
pA
</text>
<path stroke="red" d="M441 23l44 0"/>
<text stroke="none" fill="black" font-size="16" x="495" y="32">
-i(vgs)
</text>
<path stroke="red" d="M952 144l-25 2 -25 1 -26 2 -25 2 -25 2 -25 2 -25 3 -26 3 -25 3 -25 3 -25 5 -25 4 -26 5 -25 6 -25 6 -25 7 -25 8 -26 8 -25 10 -25 10 -25 12 -25 13 -26 14 -25 17 -25 17 -25 20 -25 23 -26 25 -25 28 -25 31 -25 36 -25 42 -26 46"/>
<path stroke="red" d="M120 560l-25 54 -25 63M952 140l-25 1 -25 1 -26 0 -25 1 -25 1 -25 2 -25 1 -26 1 -25 2 -25 2 -25 2 -25 2 -26 3 -25 3 -25 3 -25 3 -25 4 -26 5 -25 5 -25 5 -25 7 -25 7 -26 7 -25 9 -25 11 -25 11 -25 14 -26 16 -25 18 -25 22 -25 25"/>
<path stroke="red" d="M171 334l-25 31 -26 37 -25 44 -25 54M952 124l-25 3 -25 2 -26 3 -25 2 -25 2 -25 2 -25 2 -26 3 -25 2 -25 3 -25 2 -25 3 -26 3 -25 3 -25 4 -25 4 -25 4 -26 4 -25 6 -25 5 -25 7 -25 7 -26 9 -25 10 -25 11 -25 13 -25 16 -26 18 -25 23"/>
<path stroke="red" d="M221 300l-25 26 -25 33 -25 39 -26 49 -25 59 -25 73"/>
</svg>
